<?xml version="1.0" encoding="UTF-8" standalone="no"?>
<svg
   xmlns:dc="http://purl.org/dc/elements/1.1/"
   xmlns:cc="http://creativecommons.org/ns#"
   xmlns:rdf="http://www.w3.org/1999/02/22-rdf-syntax-ns#"
   xmlns:svg="http://www.w3.org/2000/svg"
   xmlns="http://www.w3.org/2000/svg"
   viewBox="0 0 877.23749 166.10001"
   height="166.10001"
   width="877.23749"
   xml:space="preserve"
   version="1.1"
   id="svg2"><metadata
     id="metadata8"><rdf:RDF><cc:Work
         rdf:about=""><dc:format>image/svg+xml</dc:format><dc:type
           rdf:resource="http://purl.org/dc/dcmitype/StillImage" /></cc:Work></rdf:RDF></metadata><defs
     id="defs6"><clipPath
       id="clipPath18"
       clipPathUnits="userSpaceOnUse"><path
         id="path20"
         d="M 0,1328.81 0,0 l 7017.89,0 0,1328.81 -7017.89,0 z" /></clipPath></defs><g
     transform="matrix(1.25,0,0,-1.25,0,166.1)"
     id="g10"><g
       transform="scale(0.1,0.1)"
       id="g12"><g
         id="g14"><g
           clip-path="url(#clipPath18)"
           id="g16"><path
             id="path22"
             style="fill:#ef682f;fill-opacity:1;fill-rule:nonzero;stroke:none"
             d="m 1717.19,467.957 c -13.3,-7.551 -27.12,-11.32 -41.44,-11.32 -13.3,0 -24.55,1.976 -33.77,5.949 -9.21,3.957 -17.78,9.141 -25.71,15.539 -6.39,5.371 -12.21,11.766 -17.46,19.187 -5.24,7.415 -9.02,14.579 -11.31,21.489 l 0,223.707 c 9.72,11.512 21.23,21.426 34.53,29.734 13.3,8.313 29.42,12.473 48.35,12.473 19.69,0 36.58,-4.602 50.65,-13.817 14.07,-9.203 25.45,-21.234 34.15,-36.062 8.7,-14.586 15.09,-31.723 19.19,-51.422 4.09,-19.703 6.14,-39.012 6.14,-57.945 0,-25.84 -2.44,-49.246 -7.29,-70.219 -4.87,-20.977 -12.41,-39.395 -22.64,-55.254 -8.96,-13.812 -20.09,-24.496 -33.39,-32.039 z m 45.47,344.383 c -19.56,9.98 -41.12,14.972 -64.65,14.972 -19.45,0 -39.02,-5.124 -58.71,-15.355 -19.71,-10.23 -36.2,-23.019 -49.51,-38.367 l -3.06,0.765 0,42.594 -5.37,4.606 -128.93,-8.442 0,-25.328 c 7.67,-0.512 15.6,-1.597 23.79,-3.258 8.18,-1.668 14.58,-4.031 19.19,-7.097 6.13,-4.356 11.12,-10.114 14.96,-17.274 3.83,-7.168 5.75,-14.578 5.75,-22.254 l 0,-402.519 c 0,-8.692 -1.53,-16.242 -4.6,-22.645 -3.07,-6.386 -8.44,-10.867 -16.11,-13.429 -5.89,-1.778 -12.54,-3.071 -19.96,-3.829 -7.42,-0.769 -15.1,-1.41 -23.02,-1.921 l 0,-25.329 211.42,0 0,25.329 c -7.41,0.25 -16.82,1.472 -28.2,3.652 -11.38,2.187 -20.14,4.43 -26.28,6.73 -7.42,2.821 -12.92,7.321 -16.5,13.457 -3.59,6.161 -5.37,13.852 -5.37,23.086 l 0,113.848 3.07,0 c 9.21,-6.91 21.1,-12.918 35.68,-18.031 14.58,-5.117 33.25,-7.676 56.03,-7.676 23.53,0 45.78,4.734 66.76,14.199 20.97,9.457 40.04,23.016 57.18,40.672 16.36,17.395 29.54,38.434 39.52,63.121 9.97,24.684 14.96,51.996 14.96,81.922 0,30.441 -4.16,57.496 -12.47,81.16 -8.31,23.66 -20.02,44.442 -35.1,62.352 -14.08,16.887 -30.9,30.32 -50.47,40.289" /><path
             id="path24"
             style="fill:#ef682f;fill-opacity:1;fill-rule:nonzero;stroke:none"
             d="m 1992.7,671.902 c 1.54,39.789 11.19,70.84 28.97,93.153 17.78,22.32 40.1,33.476 66.96,33.476 16.12,0 29.29,-3.699 39.53,-11.097 10.22,-7.403 18.28,-16.965 24.17,-28.688 5.38,-10.976 9.27,-24.625 11.7,-40.941 2.43,-16.321 3.65,-31.621 3.65,-45.903 l -174.98,0 z m 232.92,-127.781 c -15.35,-27.766 -31.27,-46.992 -47.77,-57.664 -16.5,-10.668 -36.14,-16.008 -58.9,-16.008 -22.26,0 -41.45,4.293 -57.56,12.883 -16.12,8.59 -29.16,20.32 -39.14,35.191 -10.23,15.383 -17.72,33.204 -22.45,53.457 -4.74,20.254 -7.1,42.821 -7.1,67.688 l 250.57,0 0,25.328 c 0,22.766 -2.87,43.867 -8.63,63.313 -5.76,19.437 -14.52,36.32 -26.29,50.652 -12.28,15.09 -28.27,26.988 -47.96,35.684 -19.7,8.691 -43.36,13.046 -70.99,13.046 -26.86,0 -51.1,-5.562 -72.72,-16.695 -21.62,-11.121 -39.71,-25.769 -54.29,-43.93 -15.1,-18.933 -26.55,-40.23 -34.34,-63.89 -7.81,-23.664 -11.71,-47.774 -11.71,-72.336 0,-27.371 3.65,-53.328 10.94,-77.891 7.29,-24.558 18.35,-46.047 33.19,-64.465 14.83,-18.418 33.7,-33 56.6,-43.742 22.89,-10.746 49.56,-16.117 80.01,-16.117 34.53,0 65.09,8.953 91.7,26.859 26.61,17.903 47.84,41.954 63.7,72.137 l -26.86,16.5" /><path
             id="path26"
             style="fill:#ef682f;fill-opacity:1;fill-rule:nonzero;stroke:none"
             d="m 2518.4,515.441 c -9.47,-12.05 -21.11,-22.496 -34.92,-31.343 -13.81,-8.848 -29.8,-13.266 -47.97,-13.266 -17.14,0 -31.27,4.996 -42.39,14.996 -11.14,10 -16.7,25.637 -16.7,46.918 0,16.402 3.71,30.57 11.13,42.488 7.42,11.922 17.52,22.246 30.32,30.957 14.06,9.235 29.28,16.926 45.66,23.079 16.36,6.144 35.43,12.429 57.17,18.843 l -2.3,-132.672 z m 136.22,-45.375 c -8.7,0 -17.21,0.125 -25.52,0.383 -8.31,0.254 -14.39,1.535 -18.23,3.84 -7.16,4.086 -12.47,9.078 -15.92,14.961 -3.46,5.883 -5.18,13.816 -5.18,23.793 0,33.512 0.38,64.398 1.15,92.668 0.77,28.266 1.15,60.687 1.15,97.273 0,25.578 -3.39,46.489 -10.17,62.739 -6.78,16.242 -16.69,29.093 -29.74,38.562 -13.04,9.719 -27.56,16.055 -43.55,18.996 -15.99,2.938 -34.72,4.41 -56.21,4.41 -15.61,0 -31.6,-2.496 -47.97,-7.48 -16.37,-4.988 -30.31,-11.07 -41.82,-18.227 -13.31,-8.445 -24.12,-18.039 -32.43,-28.781 -8.31,-10.742 -12.47,-22 -12.47,-33.762 0,-11.261 3.01,-21.433 9.02,-30.507 6.01,-9.082 15.41,-13.625 28.21,-13.625 14.32,0 25.51,3.707 33.57,11.129 8.06,7.417 12.09,15.601 12.09,24.558 0,8.445 -1.22,17.649 -3.65,27.629 -2.43,9.969 -3.64,17.52 -3.64,22.637 4.08,4.351 11.18,8.504 21.29,12.468 10.11,3.965 21.04,5.954 32.81,5.954 17.14,0 30.37,-3.524 39.71,-10.555 9.34,-7.039 16.57,-15.289 21.68,-24.754 4.61,-8.437 7.62,-17.395 9.02,-26.859 1.4,-9.461 2.11,-15.864 2.11,-19.184 l 0,-37.988 c -12.27,-6.656 -36,-15.864 -71.18,-27.629 -35.17,-11.766 -58.52,-19.828 -70.02,-24.176 -9.21,-3.582 -19.07,-8.375 -29.55,-14.387 -10.49,-6.015 -18.94,-12.851 -25.33,-20.527 -8.19,-9.211 -14.33,-19.57 -18.42,-31.086 -4.09,-11.508 -6.13,-24.555 -6.13,-39.133 0,-28.144 9.14,-50.914 27.43,-68.308 18.28,-17.391 41.63,-26.086 70.03,-26.086 26.86,0 49.82,4.859 68.88,14.578 19.05,9.719 36.89,23.789 53.53,42.207 l 2.3,0 c 3.32,-17.906 10.94,-31.531 22.83,-40.863 11.9,-9.336 27.82,-14.008 47.77,-14.008 11.51,0 21.81,1.347 30.89,4.031 9.08,2.688 19.63,6.195 31.66,10.547 l 0,24.562" /><path
             id="path28"
             style="fill:#ef682f;fill-opacity:1;fill-rule:nonzero;stroke:none"
             d="m 2952.77,455.098 c 27.63,17.652 49.88,41.566 66.77,71.757 l -24.53,16.114 c -14.3,-24.168 -29.82,-42.297 -46.55,-54.387 -16.73,-12.09 -37.48,-18.133 -62.25,-18.133 -34.23,0 -61.88,15.028 -82.95,45.09 -21.07,30.055 -31.6,68.875 -31.6,116.453 0,30.184 2.92,56.153 8.79,77.899 5.87,21.742 13.52,39.007 22.97,51.804 10.45,14.063 21.23,23.719 32.34,28.965 11.1,5.246 22.77,7.871 35.02,7.871 10.46,0 20.22,-1.343 29.27,-4.019 9.07,-2.68 15.89,-7.969 20.49,-15.867 -0.52,-5.618 -2.31,-14.481 -5.37,-26.586 -3.08,-12.11 -4.61,-23.907 -4.61,-35.383 0,-9.438 4.15,-17.973 12.47,-25.625 8.31,-7.645 20.01,-11.469 35.11,-11.469 14.07,0 24.17,4.914 30.31,14.766 6.14,9.847 9.21,21.168 9.21,33.961 0,30.703 -11.64,54.929 -34.92,72.718 -23.28,17.774 -53.47,26.664 -90.55,26.664 -26.86,0 -51.68,-5.562 -74.45,-16.695 -22.76,-11.121 -41.7,-25.769 -56.78,-43.93 -15.87,-18.933 -27.96,-39.976 -36.27,-63.125 -8.31,-23.152 -12.47,-48.027 -12.47,-74.632 0,-61.145 15.48,-109.875 46.43,-146.196 30.95,-36.328 73.8,-54.488 128.55,-54.488 29.42,0 57.94,8.828 85.57,26.473" /><path
             id="path30"
             style="fill:#ef682f;fill-opacity:1;fill-rule:nonzero;stroke:none"
             d="m 3460.82,463.926 c -7.73,0.515 -13.98,1.344 -18.75,2.492 -4.77,1.152 -10.11,2.879 -16.03,5.184 -7.47,3.066 -12.82,7.351 -16.04,12.851 -3.22,5.5 -4.82,12.723 -4.82,21.68 l 0,196.851 c 0,40.157 -9.11,70.922 -27.3,92.286 -18.19,21.351 -44.2,32.042 -78.02,32.042 -16.4,0 -31.19,-2.05 -44.39,-6.144 -13.2,-4.09 -24.66,-9.211 -34.4,-15.348 -11.28,-7.168 -20.37,-14.008 -27.29,-20.531 -6.92,-6.519 -14.61,-14.004 -23.06,-22.445 l -1.54,0 0,263.996 -5.37,5.76 -140.06,-8.44 0,-24.558 c 7.16,-0.52 16.57,-1.481 28.21,-2.887 11.64,-1.41 19.76,-3.777 24.37,-7.098 6.38,-4.351 11.57,-10.879 15.54,-19.586 3.96,-8.711 5.94,-17.41 5.94,-26.113 l 0,-440.824 c 0,-9.223 -1.77,-16.707 -5.33,-22.469 -3.56,-5.754 -8.89,-9.789 -16.01,-12.09 -4.32,-1.281 -9.65,-2.246 -16,-2.883 -6.36,-0.64 -12.45,-1.211 -18.29,-1.726 l 0,-25.324 185.33,0 0,25.324 c -7.16,0.515 -13.75,1.402 -19.76,2.687 -6.01,1.278 -11.84,3.192 -17.46,5.758 -7.16,3.07 -12.47,7.414 -15.92,13.039 -3.46,5.629 -5.19,12.793 -5.19,21.492 l 0,217.571 c 2.57,4.347 6.16,9.718 10.78,16.113 4.61,6.394 11.28,12.789 20,19.191 8.97,6.137 19.16,11.317 30.57,15.535 11.41,4.227 23.78,6.336 37.12,6.336 18.2,0 33.65,-7.293 46.34,-21.871 12.69,-14.586 19.04,-35.304 19.04,-62.164 l 0,-194.547 c 0,-9.211 -1.72,-16.695 -5.18,-22.445 -3.45,-5.762 -8.76,-9.789 -15.92,-12.09 -4.61,-1.539 -10.49,-2.562 -17.65,-3.07 -7.17,-0.512 -13.69,-1.02 -19.57,-1.535 l 0,-25.324 186.11,0 0,25.324" /><path
             id="path32"
             style="fill:#ef682f;fill-opacity:1;fill-rule:evenodd;stroke:none"
             d="m 583.953,312.09 c 0.188,-5.192 -7.594,-4.82 -10.219,-0.012 -19.062,70.52 -58.543,133.36 -74.015,210.36 -41.016,204.121 44.008,436.039 71.609,482.902 59.672,101.34 185.934,143.53 329.625,101.43 42.137,-12.35 84.699,-37.8 116.867,-62.33 121.09,-92.35 185.94,-344.061 124.66,-545.37 C 1064.18,241.898 800.18,-120.641 433.492,39.3984 226.754,129.629 119.105,273.16 36.1484,487.379 -52.5391,716.414 6.33594,1193.28 389.172,1156.27 c 38.793,-3.75 84.937,-29.93 103.867,-52.77 8.051,96.96 127.707,211.76 236.512,225.31 15.836,-8.12 23.656,-17.6 33.465,-31.43 20.464,-41.76 6.562,-80.33 -27.567,-94.58 -63.226,-28.92 -117.398,-27.4 -150.027,-76.55 C 552.242,1076.27 566.609,985.484 519.195,950.949 446.527,903.066 398.441,1004.25 371.168,1032.75 225.637,1046.62 83.2227,854.957 152.438,569.402 203.016,360.742 402.215,93.7188 624.375,117.309 c 235.578,25.011 360.563,188.07 428.505,393.445 64.26,194.234 2.11,425.34 -124.653,503.086 C 903.34,1029.11 776.586,1089.9 657.973,1000.3 592.883,951.129 517.891,717.305 549.008,523.922 559.266,460.188 580.125,383.379 583.953,312.09" /><path
             id="path34"
             style="fill:#797a7c;fill-opacity:1;fill-rule:nonzero;stroke:none"
             d="m 3945.83,467.957 c -13.3,-7.551 -27.11,-11.32 -41.44,-11.32 -13.3,0 -24.56,1.976 -33.76,5.949 -9.21,3.957 -17.79,9.141 -25.71,15.539 -6.4,5.371 -12.22,11.766 -17.46,19.187 -5.25,7.415 -9.02,14.579 -11.32,21.489 l 0,223.707 c 9.71,11.512 21.23,21.426 34.53,29.734 13.3,8.313 29.42,12.473 48.35,12.473 19.7,0 36.58,-4.602 50.65,-13.817 14.07,-9.203 25.45,-21.234 34.15,-36.062 8.69,-14.586 15.09,-31.723 19.19,-51.422 4.08,-19.703 6.14,-39.012 6.14,-57.945 0,-25.84 -2.44,-49.246 -7.29,-70.219 -4.86,-20.977 -12.42,-39.395 -22.64,-55.254 -8.96,-13.812 -20.09,-24.496 -33.39,-32.039 z m 45.47,344.383 c -19.57,9.98 -41.12,14.972 -64.65,14.972 -19.45,0 -39.02,-5.124 -58.71,-15.355 -19.7,-10.23 -36.2,-23.019 -49.5,-38.367 l -3.07,0.765 0,42.594 -5.37,4.606 -128.93,-8.442 0,-25.328 c 7.67,-0.512 15.6,-1.597 23.79,-3.258 8.18,-1.668 14.58,-4.031 19.18,-7.097 6.15,-4.356 11.13,-10.114 14.97,-17.274 3.84,-7.168 5.76,-14.578 5.76,-22.254 l 0,-402.519 c 0,-8.692 -1.54,-16.242 -4.61,-22.645 -3.07,-6.386 -8.44,-10.867 -16.12,-13.429 -5.89,-1.778 -12.53,-3.071 -19.95,-3.829 -7.42,-0.769 -15.1,-1.41 -23.02,-1.921 l 0,-25.329 211.43,0 0,25.329 c -7.43,0.25 -16.83,1.472 -28.21,3.652 -11.38,2.187 -20.14,4.43 -26.28,6.73 -7.42,2.821 -12.92,7.321 -16.5,13.457 -3.59,6.161 -5.37,13.852 -5.37,23.086 l 0,113.848 3.07,0 c 9.21,-6.91 21.1,-12.918 35.68,-18.031 14.58,-5.117 33.25,-7.676 56.02,-7.676 23.54,0 45.79,4.734 66.77,14.199 20.98,9.457 40.03,23.016 57.17,40.672 16.38,17.395 29.55,38.434 39.53,63.121 9.98,24.684 14.97,51.996 14.97,81.922 0,30.441 -4.16,57.496 -12.47,81.16 -8.33,23.66 -20.02,44.442 -35.12,62.352 -14.07,16.887 -30.89,30.32 -50.46,40.289" /><path
             id="path36"
             style="fill:#797a7c;fill-opacity:1;fill-rule:nonzero;stroke:none"
             d="m 4367.16,515.441 c -9.47,-12.05 -21.11,-22.496 -34.92,-31.343 -13.82,-8.848 -29.8,-13.266 -47.97,-13.266 -17.14,0 -31.27,4.996 -42.39,14.996 -11.13,10 -16.7,25.637 -16.7,46.918 0,16.402 3.71,30.57 11.13,42.488 7.42,11.922 17.52,22.246 30.31,30.957 14.07,9.235 29.29,16.926 45.67,23.079 16.36,6.144 35.42,12.429 57.17,18.843 l -2.3,-132.672 z m 136.22,-45.375 c -8.7,0 -17.21,0.125 -25.52,0.383 -8.31,0.254 -14.39,1.535 -18.23,3.84 -7.16,4.086 -12.47,9.078 -15.92,14.961 -3.46,5.883 -5.18,13.816 -5.18,23.793 0,33.512 0.38,64.398 1.15,92.668 0.76,28.266 1.15,60.687 1.15,97.273 0,25.578 -3.39,46.489 -10.17,62.739 -6.78,16.242 -16.69,29.093 -29.73,38.562 -13.05,9.719 -27.58,16.055 -43.56,18.996 -15.99,2.938 -34.72,4.41 -56.21,4.41 -15.61,0 -31.6,-2.496 -47.97,-7.48 -16.37,-4.988 -30.31,-11.07 -41.82,-18.227 -13.31,-8.445 -24.12,-18.039 -32.42,-28.781 -8.32,-10.742 -12.48,-22 -12.48,-33.762 0,-11.261 3,-21.433 9.02,-30.507 6,-9.082 15.41,-13.625 28.21,-13.625 14.32,0 25.51,3.707 33.57,11.129 8.06,7.417 12.09,15.601 12.09,24.558 0,8.445 -1.22,17.649 -3.65,27.629 -2.43,9.969 -3.64,17.52 -3.64,22.637 4.08,4.351 11.18,8.504 21.29,12.468 10.1,3.965 21.04,5.954 32.81,5.954 17.14,0 30.37,-3.524 39.71,-10.555 9.34,-7.039 16.57,-15.289 21.68,-24.754 4.61,-8.437 7.61,-17.395 9.02,-26.859 1.4,-9.461 2.11,-15.864 2.11,-19.184 l 0,-37.988 c -12.28,-6.656 -36.01,-15.864 -71.18,-27.629 -35.18,-11.766 -58.52,-19.828 -70.02,-24.176 -9.21,-3.582 -19.07,-8.375 -29.56,-14.387 -10.48,-6.015 -18.93,-12.851 -25.32,-20.527 -8.19,-9.211 -14.33,-19.57 -18.42,-31.086 -4.09,-11.508 -6.14,-24.555 -6.14,-39.133 0,-28.144 9.15,-50.914 27.44,-68.308 18.28,-17.391 41.63,-26.086 70.03,-26.086 26.86,0 49.82,4.859 68.87,14.578 19.06,9.719 36.9,23.789 53.53,42.207 l 2.3,0 c 3.33,-17.906 10.94,-31.531 22.84,-40.863 11.89,-9.336 27.82,-14.008 47.77,-14.008 11.51,0 21.81,1.347 30.89,4.031 9.08,2.688 19.63,6.195 31.66,10.547 l 0,24.562" /><path
             id="path38"
             style="fill:#797a7c;fill-opacity:1;fill-rule:nonzero;stroke:none"
             d="m 4529.28,282.43 c 11.38,-9.461 27.05,-14.2 47,-14.2 10.23,0 20.15,1.86 29.74,5.571 9.6,3.711 20.27,10.929 32.04,21.679 12.02,11.5 24.37,27.301 37.03,47.383 12.66,20.086 27.05,48.032 43.17,83.844 12.28,27.367 30.25,70.086 53.91,128.164 23.66,58.067 50.72,122.406 81.16,193.008 6.14,13.816 15.47,24.492 28.01,32.039 12.53,7.543 22.64,11.957 30.32,13.242 l 0,23.789 -140.52,0 0,-24.558 c 10.49,-1.282 21.55,-4.797 33.19,-10.547 11.64,-5.75 17.46,-11.949 17.46,-18.59 0,-6.145 -1.66,-13.492 -4.99,-22.051 -3.34,-8.566 -5.9,-15.273 -7.69,-20.129 -15.36,-39.871 -29.26,-74.441 -41.68,-103.715 -12.43,-29.265 -24.4,-57.574 -35.92,-84.921 -10.97,28.624 -26.4,66.773 -46.3,114.445 -19.9,47.668 -34.7,84.156 -44.39,109.472 -1.53,3.829 -2.89,7.528 -4.03,11.114 -1.16,3.578 -1.73,6.133 -1.73,7.664 0,3.832 5.37,7.222 16.12,10.156 10.74,2.941 19.95,4.543 27.63,4.801 l 0,26.859 -172.75,0 0,-25.328 c 11.51,-1.789 23.03,-5.945 34.54,-12.469 11.51,-6.523 19.69,-15.675 24.56,-27.437 21.47,-51.149 42.06,-100.641 61.76,-148.457 19.69,-47.817 41.68,-102.035 65.98,-162.641 -7.93,-21.949 -20.79,-47.472 -38.56,-76.578 -17.78,-29.098 -33.06,-47.09 -45.84,-53.98 -2.56,4.312 -6.01,9.769 -10.36,16.363 -4.36,6.601 -8.44,11.808 -12.28,15.609 -4.6,4.824 -9.84,8.758 -15.73,11.805 -5.89,3.047 -12.92,4.57 -21.1,4.57 -10.49,0 -19.25,-4.031 -26.28,-12.09 -7.03,-8.058 -10.55,-18.476 -10.55,-31.265 0,-12.281 5.69,-23.153 17.08,-32.621" /><path
             id="path40"
             style="fill:#797a7c;fill-opacity:1;fill-rule:nonzero;stroke:none"
             d="m 5575.1,463.926 c -7.16,0.515 -13.62,1.344 -19.37,2.492 -5.76,1.152 -11.58,2.879 -17.46,5.184 -7.43,3.066 -12.66,7.48 -15.74,13.234 -3.06,5.758 -4.6,13.109 -4.6,22.066 l 0,192.246 c 0,43.485 -9.32,75.715 -27.97,96.692 -18.65,20.976 -43.93,31.472 -75.85,31.472 -16.09,0 -30.71,-2.05 -43.87,-6.144 -13.15,-4.09 -24.58,-9.469 -34.28,-16.117 -11.5,-7.672 -20.75,-14.903 -27.77,-21.676 -7.03,-6.785 -15.14,-14.652 -24.33,-23.598 -7.67,18.668 -20.33,34.59 -37.99,47.77 -17.65,13.172 -38.75,19.765 -63.31,19.765 -15.61,0 -30.12,-2.05 -43.55,-6.144 -13.43,-4.09 -24.63,-9.211 -33.58,-15.348 -7.93,-5.371 -16.5,-12.41 -25.71,-21.105 -9.2,-8.699 -17.01,-16.246 -23.4,-22.637 l -2.69,0 0,54.102 -5.37,5.375 -126.63,-8.442 0,-25.328 c 7.68,-0.512 15.09,-1.723 22.26,-3.644 7.15,-1.918 13.17,-4.407 18.03,-7.469 6.65,-4.602 11.83,-10.156 15.54,-16.676 3.71,-6.519 5.57,-13.863 5.57,-22.035 l 0,-234.941 c 0,-9.2 -1.73,-16.676 -5.18,-22.426 -3.46,-5.75 -8.77,-9.774 -15.93,-12.067 -4.61,-1.535 -10.04,-2.558 -16.3,-3.066 -6.28,-0.512 -12.35,-1.02 -18.23,-1.535 l 0,-25.324 183.8,0 0,25.324 c -6.91,0.515 -13.18,1.402 -18.8,2.687 -5.63,1.278 -11.13,3.192 -16.5,5.758 -7.17,3.07 -12.54,7.539 -16.12,13.426 -3.58,5.883 -5.37,13.176 -5.37,21.875 l 0,216.801 c 2.56,3.582 6.41,8.886 11.54,15.925 5.13,7.036 11.41,13.364 18.85,18.993 9.23,6.906 19.35,12.339 30.38,16.308 11.03,3.961 22.82,5.949 35.39,5.949 18.2,0 33.39,-7.234 45.57,-21.679 12.19,-14.461 18.28,-34.989 18.28,-61.59 l 0,-195.313 c 0,-9.211 -1.73,-16.695 -5.18,-22.445 -3.45,-5.762 -8.77,-9.789 -15.92,-12.09 -4.61,-1.539 -9.67,-2.562 -15.16,-3.07 -5.51,-0.512 -11.2,-1.02 -17.08,-1.535 l 0,-25.324 180.35,0 0,25.324 c -7.67,0.515 -13.88,1.344 -18.61,2.492 -4.74,1.152 -10.04,2.879 -15.93,5.184 -7.42,3.066 -12.66,7.48 -15.73,13.234 -3.07,5.758 -4.6,13.109 -4.6,22.066 l 0,218.34 c 2.55,4.344 6.33,9.785 11.32,16.309 4.99,6.515 11.19,12.59 18.61,18.226 9.21,6.903 19.31,12.274 30.31,16.114 11,3.836 22.77,5.757 35.3,5.757 18.16,0 33.32,-7.234 45.47,-21.679 12.15,-14.461 18.23,-34.989 18.23,-61.59 l 0,-195.313 c 0,-9.211 -1.72,-16.695 -5.18,-22.445 -3.45,-5.762 -8.76,-9.789 -15.92,-12.09 -4.61,-1.539 -9.92,-2.562 -15.93,-3.07 -6.01,-0.512 -11.96,-1.02 -17.84,-1.535 l 0,-25.324 184.18,0 0,25.324" /><path
             id="path42"
             style="fill:#797a7c;fill-opacity:1;fill-rule:nonzero;stroke:none"
             d="m 5696.36,671.902 c 1.54,39.789 11.19,70.84 28.97,93.153 17.78,22.32 40.1,33.476 66.96,33.476 16.12,0 29.29,-3.699 39.52,-11.097 10.23,-7.403 18.29,-16.965 24.18,-28.688 5.37,-10.976 9.27,-24.625 11.7,-40.941 2.43,-16.321 3.64,-31.621 3.64,-45.903 l -174.97,0 z m 232.92,-127.781 c -15.35,-27.766 -31.28,-46.992 -47.78,-57.664 -16.5,-10.668 -36.13,-16.008 -58.9,-16.008 -22.25,0 -41.44,4.293 -57.56,12.883 -16.11,8.59 -29.16,20.32 -39.13,35.191 -10.24,15.383 -17.72,33.204 -22.45,53.457 -4.74,20.254 -7.1,42.821 -7.1,67.688 l 250.57,0 0,25.328 c 0,22.766 -2.88,43.867 -8.63,63.313 -5.76,19.437 -14.53,36.32 -26.29,50.652 -12.28,15.09 -28.27,26.988 -47.96,35.684 -19.7,8.691 -43.37,13.046 -70.99,13.046 -26.86,0 -51.1,-5.562 -72.72,-16.695 -21.62,-11.121 -39.71,-25.769 -54.3,-43.93 -15.09,-18.933 -26.54,-40.23 -34.34,-63.89 -7.8,-23.664 -11.7,-47.774 -11.7,-72.336 0,-27.371 3.64,-53.328 10.94,-77.891 7.29,-24.558 18.35,-46.047 33.19,-64.465 14.83,-18.418 33.7,-33 56.6,-43.742 22.89,-10.746 49.56,-16.117 80,-16.117 34.54,0 65.1,8.953 91.71,26.859 26.6,17.903 47.83,41.954 63.7,72.137 l -26.86,16.5" /><path
             id="path44"
             style="fill:#797a7c;fill-opacity:1;fill-rule:nonzero;stroke:none"
             d="m 6417.75,463.926 c -7.93,0.515 -14.14,1.281 -18.61,2.301 -4.48,1.019 -9.78,2.812 -15.92,5.375 -7.42,3.066 -12.66,7.351 -15.73,12.851 -3.08,5.5 -4.61,12.723 -4.61,21.68 l 0,196.851 c 0,37.602 -8.76,67.723 -26.28,90.368 -17.53,22.636 -44.46,33.96 -80.78,33.96 -16.37,0 -31.08,-2.05 -44.13,-6.144 -13.04,-4.09 -24.3,-9.211 -33.76,-15.348 -8.19,-5.371 -16.89,-12.347 -26.09,-20.91 -9.21,-8.578 -16.89,-15.93 -23.03,-22.066 l -1.92,0 0,53.336 -5.37,5.375 -125.86,-8.442 0,-25.328 c 7.67,-0.512 14.83,-1.476 21.49,-2.875 6.65,-1.406 12.41,-3.644 17.26,-6.707 6.65,-4.601 11.84,-10.547 15.55,-17.824 3.7,-7.277 5.56,-15.266 5.56,-23.953 l 0,-233.406 c 0,-9.2 -1.73,-16.676 -5.18,-22.426 -3.46,-5.75 -8.76,-9.774 -15.93,-12.067 -4.6,-1.535 -10.03,-2.558 -16.3,-3.066 -6.27,-0.512 -12.35,-1.02 -18.23,-1.535 l 0,-25.324 185.34,0 0,25.324 c -6.66,0.515 -13.12,1.402 -19.38,2.687 -6.27,1.278 -12.09,3.192 -17.46,5.758 -7.16,3.07 -12.54,7.414 -16.11,13.039 -3.59,5.629 -5.38,12.793 -5.38,21.492 l 0,217.571 c 2.3,4.089 5.96,9.527 10.96,16.308 5,6.774 11.73,13.102 20.2,18.996 8.71,6.137 18.71,11.317 29.99,15.535 11.29,4.227 23.72,6.336 37.31,6.336 18.2,0 33.65,-7.293 46.35,-21.871 12.69,-14.586 19.04,-35.304 19.04,-62.164 l 0,-194.547 c 0,-9.211 -1.73,-16.695 -5.18,-22.445 -3.45,-5.762 -8.77,-9.789 -15.92,-12.09 -4.61,-1.539 -10.43,-2.562 -17.46,-3.07 -7.04,-0.512 -13.5,-1.02 -19.38,-1.535 l 0,-25.324 184.95,0 0,25.324" /><path
             id="path46"
             style="fill:#797a7c;fill-opacity:1;fill-rule:nonzero;stroke:none"
             d="m 6697.87,483.113 c -5.12,-1.793 -13.88,-3.258 -26.29,-4.41 -12.41,-1.152 -21.81,-1.73 -28.2,-1.73 -13.81,0 -24.82,1.922 -33,5.757 -8.19,3.832 -14.33,9.458 -18.42,16.887 -4.35,7.922 -7.1,17.195 -8.25,27.817 -1.15,10.609 -1.73,23.851 -1.73,39.711 l 0,211.429 107.83,0 0,36.836 -108.59,0 0,117.805 -69.84,0 0,-117.805 -69.84,0 0,-36.836 68.3,0 0,-256.32 c 0,-29.168 6.46,-51.746 19.38,-67.727 12.92,-15.988 35.24,-23.984 66.96,-23.984 21.49,0 39.65,2.367 54.49,7.102 14.83,4.73 30.57,10.55 47.2,17.453 l 0,28.015" /><path
             id="path48"
             style="fill:#797a7c;fill-opacity:1;fill-rule:nonzero;stroke:none"
             d="m 6948.24,647.727 c -14.96,7.156 -30.89,13.433 -47.77,18.804 -17.14,5.625 -31.53,10.676 -43.17,15.16 -11.64,4.469 -21.29,9.266 -28.97,14.383 -7.93,5.379 -13.88,11.895 -17.84,19.571 -3.97,7.675 -5.95,17.265 -5.95,28.781 0,14.941 6.01,27.695 18.03,38.258 12.03,10.558 28.53,15.847 49.51,15.847 25.57,0 47.25,-8.543 65.03,-25.629 17.78,-17.086 29.36,-39.238 34.73,-66.464 l 26.48,0 -5.76,121.64 -27.62,0 -8.83,-19.957 c -9.72,5.375 -22.32,9.981 -37.79,13.82 -15.49,3.832 -30.64,5.75 -45.48,5.75 -38.63,0 -69.45,-10.742 -92.47,-32.23 -23.03,-21.488 -34.54,-47.715 -34.54,-78.664 0,-17.649 3.58,-33 10.75,-46.051 7.16,-13.039 16.36,-24.039 27.62,-32.996 10.49,-8.441 23.09,-15.797 37.8,-22.066 14.71,-6.27 28.07,-11.192 40.1,-14.77 15.09,-4.605 28.78,-9.277 41.06,-14.008 12.27,-4.73 22.64,-10.039 31.08,-15.922 8.18,-5.886 14.39,-12.726 18.61,-20.527 4.22,-7.809 6.33,-17.078 6.33,-27.824 0,-20.844 -6.66,-36.86 -19.95,-48.055 -13.31,-11.199 -32.23,-16.789 -56.79,-16.789 -17.4,0 -33.07,3.848 -47.01,11.543 -13.95,7.699 -25.9,17.207 -35.87,28.5 -9.48,10.777 -17.53,22.844 -24.18,36.188 -6.66,13.343 -11,25.035 -13.05,35.042 l -26.48,0 3.84,-131.609 28.78,0 7.68,24.942 c 7.92,-6.661 21.16,-13.946 39.71,-21.872 18.54,-7.929 38.82,-11.898 60.82,-11.898 41.69,0 75.65,11.129 101.88,33.383 26.22,22.258 39.33,50.902 39.33,85.953 0,17.398 -2.82,32.098 -8.44,44.125 -5.63,12.027 -13.69,22.641 -24.18,31.852 -9.72,8.695 -22.06,16.624 -37.03,23.789" /></g></g></g></g></svg>